<svg width="1280" height="420" viewBox="0 0 1280 420" fill="none" xmlns="http://www.w3.org/2000/svg"><defs><linearGradient id="bg" x1="0" y1="0" x2="1280" y2="420"><stop stop-color="#050505"/><stop offset="0.52" stop-color="#0B0F16"/><stop offset="1" stop-color="#111827"/></linearGradient><radialGradient id="blue" cx="0" cy="0" r="1" gradientUnits="userSpaceOnUse" gradientTransform="translate(1040 116) rotate(140) scale(430 286)"><stop stop-color="#60A5FA" stop-opacity="0.30"/><stop offset="1" stop-color="#60A5FA" stop-opacity="0"/></radialGradient><radialGradient id="yellow" cx="0" cy="0" r="1" gradientUnits="userSpaceOnUse" gradientTransform="translate(190 348) rotate(-33) scale(410 250)"><stop stop-color="#FDE68A" stop-opacity="0.17"/><stop offset="1" stop-color="#FDE68A" stop-opacity="0"/></radialGradient><filter id="shadow"><feDropShadow dx="0" dy="20" stdDeviation="34" flood-color="#000" flood-opacity=".45"/></filter></defs><rect width="1280" height="420" rx="36" fill="url(#bg)"/><rect width="1280" height="420" rx="36" fill="url(#blue)"/><rect width="1280" height="420" rx="36" fill="url(#yellow)"/><rect x="32" y="32" width="1216" height="356" rx="30" fill="#fff" fill-opacity=".035" stroke="#fff" stroke-opacity=".11"/><g filter="url(#shadow)"><rect x="96" y="88" width="1088" height="244" rx="30" fill="#0B0F16" fill-opacity=".74" stroke="#fff" stroke-opacity=".12"/></g><circle cx="134" cy="120" r="7" fill="#F87171"/><circle cx="158" cy="120" r="7" fill="#FBBF24"/><circle cx="182" cy="120" r="7" fill="#34D399"/><g transform="translate(602 116)"><rect x="-42" width="84" height="84" rx="26" fill="#fff" fill-opacity=".055" stroke="#fff" stroke-opacity=".12"/><path d="M-18 29C-28 29-30 37-30 42C-30 49-25 54-18 54H-5V64C-5 70-10 73-17 73" stroke="#93C5FD" stroke-width="5" stroke-linecap="round"/><path d="M18 55C28 55 30 47 30 42C30 35 25 30 18 30H5V20C5 14 10 11 17 11" stroke="#FDE68A" stroke-width="5" stroke-linecap="round"/><circle cx="-16" cy="40" r="3" fill="#E5E7EB"/><circle cx="16" cy="44" r="3" fill="#E5E7EB"/></g><text x="640" y="222" text-anchor="middle" font-family="Inter, ui-sans-serif, system-ui, -apple-system, Segoe UI, sans-serif" font-size="48" font-weight="760" fill="#F8FAFC">Python Mini Projects</text><text x="640" y="262" text-anchor="middle" font-family="Inter, ui-sans-serif, system-ui, -apple-system, Segoe UI, sans-serif" font-size="20" font-weight="450" fill="#CBD5E1">Automation · APIs · Data Tools · Experiments</text><g font-family="Inter, ui-sans-serif, system-ui" font-size="13" font-weight="650" fill="#E5E7EB"><rect x="325" y="304" width="126" height="34" rx="17" fill="#fff" fill-opacity=".05" stroke="#fff" stroke-opacity=".10"/><text x="388" y="326" text-anchor="middle">Scripts</text><rect x="477" y="304" width="142" height="34" rx="17" fill="#fff" fill-opacity=".05" stroke="#fff" stroke-opacity=".10"/><text x="548" y="326" text-anchor="middle">APIs</text><rect x="645" y="304" width="142" height="34" rx="17" fill="#fff" fill-opacity=".05" stroke="#fff" stroke-opacity=".10"/><text x="716" y="326" text-anchor="middle">Data Tools</text><rect x="813" y="304" width="142" height="34" rx="17" fill="#fff" fill-opacity=".05" stroke="#fff" stroke-opacity=".10"/><text x="884" y="326" text-anchor="middle">Tooling</text></g></svg>