<svg width="1280" height="620" viewBox="0 0 1280 620" fill="none" xmlns="http://www.w3.org/2000/svg"><defs><linearGradient id="bg" x1="0" y1="0" x2="1280" y2="620"><stop stop-color="#050505"/><stop offset="1" stop-color="#111827"/></linearGradient><linearGradient id="card" x1="0" y1="0" x2="250" y2="160"><stop stop-color="#fff" stop-opacity=".08"/><stop offset="1" stop-color="#fff" stop-opacity=".03"/></linearGradient><marker id="arrow" markerWidth="12" markerHeight="12" refX="10" refY="6" orient="auto"><path d="M2 2L10 6L2 10" stroke="#94A3B8" stroke-width="1.8" stroke-linecap="round" stroke-linejoin="round"/></marker></defs><rect width="1280" height="620" rx="32" fill="url(#bg)"/><circle cx="1080" cy="104" r="220" fill="#60A5FA" fill-opacity=".11"/><circle cx="168" cy="526" r="250" fill="#FDE68A" fill-opacity=".08"/><rect x="36" y="36" width="1208" height="548" rx="28" fill="#fff" fill-opacity=".03" stroke="#fff" stroke-opacity=".10"/><text x="86" y="94" font-family="Inter, ui-sans-serif, system-ui, -apple-system, Segoe UI, sans-serif" font-size="18" font-weight="700" fill="#94A3B8" letter-spacing="3">PYTHON ENGINEERING LAB</text><text x="86" y="132" font-family="Inter, ui-sans-serif, system-ui, -apple-system, Segoe UI, sans-serif" font-size="34" font-weight="760" fill="#F8FAFC">From small scripts to reusable engineering patterns</text><g transform="translate(86 232)"><rect width="236" height="140" rx="24" fill="url(#card)" stroke="#fff" stroke-opacity=".13"/><circle cx="48" cy="48" r="18" fill="#93C5FD" fill-opacity=".15" stroke="#93C5FD" stroke-opacity=".62"/><text x="82" y="54" font-family="Inter, ui-sans-serif, system-ui" font-size="22" font-weight="730" fill="#F8FAFC">Algorithms</text><text x="34" y="94" font-family="Inter, ui-sans-serif, system-ui" font-size="14" fill="#94A3B8">Core logic and</text><text x="34" y="116" font-family="Inter, ui-sans-serif, system-ui" font-size="14" fill="#94A3B8">problem solving</text></g><g transform="translate(374 232)"><rect width="236" height="140" rx="24" fill="url(#card)" stroke="#fff" stroke-opacity=".13"/><path d="M35 48H66M35 60H58M35 72H70" stroke="#FDE68A" stroke-opacity=".82" stroke-width="4" stroke-linecap="round"/><text x="82" y="54" font-family="Inter, ui-sans-serif, system-ui" font-size="22" font-weight="730" fill="#F8FAFC">Utilities</text><text x="34" y="94" font-family="Inter, ui-sans-serif, system-ui" font-size="14" fill="#94A3B8">Small practical tools</text><text x="34" y="116" font-family="Inter, ui-sans-serif, system-ui" font-size="14" fill="#94A3B8">and automation ideas</text></g><g transform="translate(662 232)"><rect width="236" height="140" rx="24" fill="url(#card)" stroke="#fff" stroke-opacity=".13"/><rect x="30" y="32" width="38" height="38" rx="12" fill="#A78BFA" fill-opacity=".15" stroke="#C4B5FD" stroke-opacity=".62"/><text x="82" y="54" font-family="Inter, ui-sans-serif, system-ui" font-size="22" font-weight="730" fill="#F8FAFC">Data</text><text x="34" y="94" font-family="Inter, ui-sans-serif, system-ui" font-size="14" fill="#94A3B8">Pandas, NumPy,</text><text x="34" y="116" font-family="Inter, ui-sans-serif, system-ui" font-size="14" fill="#94A3B8">and notebooks</text></g><g transform="translate(950 232)"><rect width="236" height="140" rx="24" fill="url(#card)" stroke="#fff" stroke-opacity=".13"/><path d="M32 72L48 34L66 72H32Z" fill="#34D399" fill-opacity=".14" stroke="#86EFAC" stroke-opacity=".58"/><text x="82" y="54" font-family="Inter, ui-sans-serif, system-ui" font-size="22" font-weight="730" fill="#F8FAFC">Experiments</text><text x="34" y="94" font-family="Inter, ui-sans-serif, system-ui" font-size="14" fill="#94A3B8">Prototype quickly,</text><text x="34" y="116" font-family="Inter, ui-sans-serif, system-ui" font-size="14" fill="#94A3B8">then refactor</text></g><line x1="322" y1="302" x2="364" y2="302" stroke="#94A3B8" stroke-opacity=".56" stroke-width="2" marker-end="url(#arrow)"/><line x1="610" y1="302" x2="652" y2="302" stroke="#94A3B8" stroke-opacity=".56" stroke-width="2" marker-end="url(#arrow)"/><line x1="898" y1="302" x2="940" y2="302" stroke="#94A3B8" stroke-opacity=".56" stroke-width="2" marker-end="url(#arrow)"/><g transform="translate(170 450)"><rect width="940" height="86" rx="24" fill="#fff" fill-opacity=".04" stroke="#fff" stroke-opacity=".10"/><text x="40" y="37" font-family="Inter, ui-sans-serif, system-ui" font-size="17" font-weight="700" fill="#E5E7EB">Learning Contract</text><text x="40" y="64" font-family="Inter, ui-sans-serif, system-ui" font-size="14" fill="#94A3B8">Each mini project should be small, readable, runnable, and easy to graduate into a larger engineering system.</text></g></svg>